<svg width="25" height="24" viewBox="0 0 25 24" fill="none" xmlns="http://www.w3.org/2000/svg">
<path fill-rule="evenodd" clip-rule="evenodd" d="M11.7929 2.29289L5.79289 8.29289C5.40237 8.68342 5.40237 9.31658 5.79289 9.70711C6.18342 10.0976 6.81658 10.0976 7.20711 9.70711L12.5 4.41421L17.7929 9.70711C18.1834 10.0976 18.8166 10.0976 19.2071 9.70711C19.5976 9.31658 19.5976 8.68342 19.2071 8.29289L13.2071 2.29289C12.8166 1.90237 12.1834 1.90237 11.7929 2.29289ZM5.79289 15.7071L11.7929 21.7071C12.1834 22.0976 12.8166 22.0976 13.2071 21.7071L19.2071 15.7071C19.5976 15.3166 19.5976 14.6834 19.2071 14.2929C18.8166 13.9024 18.1834 13.9024 17.7929 14.2929L12.5 19.5858L7.20711 14.2929C6.81658 13.9024 6.18342 13.9024 5.79289 14.2929C5.40237 14.6834 5.40237 15.3166 5.79289 15.7071Z" fill="black"/>
</svg>
