<svg width="40" height="26" viewBox="0 0 40 26" fill="none" xmlns="http://www.w3.org/2000/svg">
<path fill-rule="evenodd" clip-rule="evenodd" d="M13 16C14.6569 16 16 14.6569 16 13C16 11.3431 14.6569 10 13 10C11.3431 10 10 11.3431 10 13C10 14.6569 11.3431 16 13 16ZM23 13C23 14.6569 21.6569 16 20 16C18.3431 16 17 14.6569 17 13C17 11.3431 18.3431 10 20 10C21.6569 10 23 11.3431 23 13ZM30 13C30 14.6569 28.6569 16 27 16C25.3431 16 24 14.6569 24 13C24 11.3431 25.3431 10 27 10C28.6569 10 30 11.3431 30 13Z" fill="black"/>
</svg>
