<svg width="21" height="21" viewBox="0 0 21 21" fill="none" xmlns="http://www.w3.org/2000/svg">
<path d="M8.03906 1.64062H12.9609C13.414 1.64062 13.7812 1.27337 13.7812 0.820312C13.7812 0.367254 13.414 0 12.9609 0H8.03906C7.586 0 7.21875 0.367254 7.21875 0.820312C7.21875 1.27337 7.586 1.64062 8.03906 1.64062Z" fill="#555555"/>
<path d="M12.8202 8.49626L9.92 11.3965C9.59963 11.7168 9.59959 12.2362 9.91996 12.5566C10.2404 12.877 10.7598 12.8769 11.0801 12.5566L13.9803 9.65635C14.3007 9.33602 14.3007 8.81664 13.9804 8.49626C13.66 8.17593 13.1406 8.17597 12.8202 8.49626Z" fill="#555555"/>
<path d="M10.5 2.95312C5.51303 2.95312 1.47656 6.9889 1.47656 11.9766C1.47656 16.9635 5.51229 21 10.5 21C15.4871 21 19.5234 16.9641 19.5234 11.9766C19.5234 6.9896 15.4877 2.95312 10.5 2.95312ZM10.5 19.3594C6.42912 19.3594 3.11719 16.0474 3.11719 11.9766C3.11719 7.90568 6.42912 4.59375 10.5 4.59375C14.5709 4.59375 17.8828 7.90568 17.8828 11.9766C17.8828 16.0474 14.5709 19.3594 10.5 19.3594Z" fill="#555555"/>
</svg>
