<svg width="41" height="41" viewBox="0 0 41 41" fill="none" xmlns="http://www.w3.org/2000/svg">
<g clip-path="url(#clip0)">
<path d="M37.5833 5.125H11.9583C10.7592 5.125 9.90833 5.64085 9.225 6.65915L0 20.5L9.225 34.3342C9.90833 35.1917 10.7592 35.875 11.9583 35.875H37.5833C39.4592 35.875 41 34.3342 41 32.4583V8.54167C41 6.65915 39.4592 5.125 37.5833 5.125ZM32.4583 26.65L30.0667 29.0417L23.9167 22.8917L17.7667 29.0417L15.375 26.65L21.525 20.5L15.375 14.35L17.7667 11.9583L23.9167 18.1083L30.0667 11.9583L32.4583 14.35L26.3083 20.5L32.4583 26.65Z" stroke="#231F20" stroke-width="3" stroke-miterlimit="10"/>
<path d="M37.5833 5H11.9583C10.7592 5 9.90833 5.51585 9.225 6.53415L0 20.375L9.225 34.2092C9.90833 35.0667 10.7592 35.75 11.9583 35.75H37.5833C39.4592 35.75 41 34.2092 41 32.3333V8.41667C41 6.53415 39.4592 5 37.5833 5ZM32.4583 26.525L30.0667 28.9167L23.9167 22.7667L17.7667 28.9167L15.375 26.525L21.525 20.375L15.375 14.225L17.7667 11.8333L23.9167 17.9833L30.0667 11.8333L32.4583 14.225L26.3083 20.375L32.4583 26.525Z" stroke="#231F20" stroke-width="3" stroke-miterlimit="10"/>
<rect x="15" y="14.497" width="4.93991" height="20.7765" transform="rotate(-45.065 15 14.497)" fill="#231F20"/>
<rect x="18.5791" y="29.2265" width="4.93991" height="20.7765" transform="rotate(-135.501 18.5791 29.2265)" fill="#231F20"/>
</g>
<defs>
<clipPath id="clip0">
<rect width="41" height="41" fill="white"/>
</clipPath>
</defs>
</svg>
