<svg width="300" height="253" viewBox="0 0 300 253" fill="none" xmlns="http://www.w3.org/2000/svg">
<path d="M88.0146 157.899C85.5754 157.899 83.2524 159.296 82.4393 161.74C81.9747 163.02 82.207 164.3 82.3232 165.697C82.5555 168.49 82.4393 171.748 84.2978 174.076C85.8077 175.821 87.8985 176.752 90.1054 176.752C90.8023 176.752 91.383 176.752 92.0799 176.752H100.675H113.917H130.178H147.717H164.675H179.426H190.228C191.971 176.752 193.597 176.752 195.339 176.752C198.359 176.752 201.147 174.774 201.611 171.632C201.727 170.584 201.611 169.537 201.611 168.606C201.495 167.326 201.495 166.046 201.379 164.649C201.147 160.925 198.243 158.016 194.526 158.016C194.061 158.016 193.713 158.016 193.248 158.016H185.931H173.386H157.706H140.399H123.093H107.644H95.6807H88.9438H88.0146V157.899Z" fill="black" stroke="black" stroke-width="2"/>
<path d="M21.2272 9.98515C23.2018 14.2911 25.1764 18.4806 27.1509 22.7865C29.1255 26.9761 30.984 31.282 32.9585 35.4716C34.1201 37.9155 35.9785 40.8249 35.8623 43.5015C35.7462 45.829 34.5847 47.9238 32.4939 49.0876C31.797 49.4367 31.1001 49.7859 30.4032 50.135C28.1963 51.1824 25.7571 52.8116 23.2018 52.5789C19.0203 52.1134 17.7426 48.273 16.2327 45.0144C12.2835 36.5189 8.33432 28.1399 4.5013 19.6444C3.45593 17.5496 2.29441 15.3385 1.48135 13.1273C0.668286 11.1489 0.90059 8.70501 2.06211 6.84299C2.75902 5.67922 3.92054 4.86459 5.08206 4.28271C6.94049 3.3517 8.68278 2.30431 10.5412 1.48967C12.6319 0.558664 14.955 1.02417 16.6973 2.30431C19.0203 4.04995 20.0657 7.54125 21.2272 9.98515Z" fill="black" stroke="black" stroke-width="2"/>
<path d="M46.4322 62.2381C47.5937 64.5656 48.8714 66.8932 50.0329 69.2207C53.9821 76.9015 57.9313 84.5823 61.8804 92.2632C66.4104 100.991 70.9403 109.72 75.3541 118.448C78.4902 124.616 81.7424 130.667 84.8785 136.835C85.3431 137.766 85.9239 138.814 86.3885 139.745C88.0146 143.003 86.737 146.611 83.4847 148.124C81.7424 148.938 80.1163 149.753 78.374 150.451C75.1218 151.848 71.521 150.219 70.0111 147.309C69.7788 146.96 69.6626 146.611 69.4303 146.262C68.3849 144.283 67.4557 142.421 66.4104 140.443C62.5773 133.111 58.8605 125.896 55.0275 118.564C50.4975 109.836 45.8515 100.991 41.3215 92.2632C37.837 85.7461 34.4686 79.1127 30.984 72.5956C30.2871 71.3154 29.5902 69.9189 28.8932 68.6388C27.8479 66.544 27.6156 63.9837 29.0094 61.889C30.2871 59.9106 32.9586 58.9796 34.9332 58.0485C35.6301 57.6994 36.327 57.3503 36.9077 57.0012C38.8823 56.1865 41.2054 56.4193 42.9476 57.6994C44.6899 58.7468 45.503 60.6088 46.4322 62.2381Z" fill="black" stroke="black" stroke-width="2"/>
<path d="M219.963 167.675C218.57 166.977 216.827 166.744 215.317 167.21C213.459 167.791 212.297 169.188 211.136 170.584C208.813 173.261 206.025 175.938 207.187 179.662C207.767 181.407 208.929 182.571 210.207 183.619C211.833 185.131 213.459 186.528 215.085 188.041C218.337 190.95 221.473 193.86 224.726 196.769C237.851 208.639 251.092 220.51 264.217 232.38C267.47 235.29 270.838 238.315 274.09 241.225C277.342 244.134 280.479 247.16 283.847 249.953C286.17 251.931 289.655 252.397 292.21 250.419C293.836 249.255 294.998 247.626 296.391 246.229C297.553 244.949 298.482 243.785 298.714 242.039C299.295 238.315 296.159 236.104 293.72 233.893C290.468 230.867 287.099 227.958 283.847 224.932C277.342 218.997 270.722 213.062 264.217 207.127C251.092 195.256 237.967 183.386 224.842 171.399C223.216 170.352 221.706 168.606 219.963 167.675Z" fill="black" stroke="black" stroke-width="2"/>
</svg>
