<svg width="65" height="65" viewBox="0 0 65 65" fill="none" xmlns="http://www.w3.org/2000/svg">
<path d="M14.0833 31.9583L19.9514 42.0694" stroke="black" stroke-width="6" stroke-miterlimit="10" stroke-linecap="round" stroke-linejoin="round"/>
<path d="M30.0625 42.1597L36.9236 53.8958" stroke="black" stroke-width="6" stroke-miterlimit="10" stroke-linecap="round" stroke-linejoin="round"/>
<path d="M19.9514 42.0694L30.0625 42.1597" stroke="black" stroke-width="6" stroke-miterlimit="10" stroke-linecap="round" stroke-linejoin="round"/>
<path d="M11.4653 31.4167C13.8087 31.4167 15.7083 29.517 15.7083 27.1736C15.7083 24.8302 13.8087 22.9306 11.4653 22.9306C9.1219 22.9306 7.22222 24.8302 7.22222 27.1736C7.22222 29.517 9.1219 31.4167 11.4653 31.4167Z" fill="black"/>
<path d="M50.1944 19.5903C52.5378 19.5903 54.4375 17.6906 54.4375 15.3472C54.4375 13.0039 52.5378 11.1042 50.1944 11.1042C47.8511 11.1042 45.9514 13.0039 45.9514 15.3472C45.9514 17.6906 47.8511 19.5903 50.1944 19.5903Z" fill="black"/>
<path d="M50.2847 53.8958V20.5833" stroke="black" stroke-width="6" stroke-miterlimit="10" stroke-linecap="round" stroke-linejoin="round"/>
<path d="M26.9028 31.9583C26.9028 31.9583 27.8958 27.3542 37.7361 26.2708" stroke="black" stroke-width="3" stroke-linecap="round" stroke-linejoin="round"/>
<path d="M36.9236 29.7917L42.6111 26L36.5625 23.0208L36.9236 29.7917Z" fill="black"/>
</svg>
