<svg width="24" height="24" viewBox="0 0 24 24" fill="none" xmlns="http://www.w3.org/2000/svg">
<path fill-rule="evenodd" clip-rule="evenodd" d="M8.23823 7.68099L10.3019 3.54427C10.9965 2.15191 13.0035 2.15191 13.6981 3.54427L15.7618 7.68099L20.3765 8.34419C21.9298 8.56741 22.55 10.4557 21.426 11.5394L18.0867 14.7593L18.8751 19.3059C19.1405 20.8362 17.5167 22.0032 16.1275 21.2806L12 19.1339L7.87251 21.2806C6.48326 22.0032 4.85952 20.8362 5.1249 19.3059L5.91333 14.7593L2.57397 11.5394C1.44999 10.4557 2.0702 8.56741 3.62346 8.34419L8.23823 7.68099ZM12 4.37325L9.49575 9.39318L3.89571 10.198L7.94804 14.1053L6.99127 19.6226L12 17.0175L17.0087 19.6226L16.052 14.1053L20.1043 10.198L14.5042 9.39318L12 4.37325Z" fill="black"/>
</svg>
